<svg xmlns="http://www.w3.org/2000/svg" xmlns:xlink="http://www.w3.org/1999/xlink" width="229" zoomAndPan="magnify" viewBox="0 0 171.75 43.499998" height="58" preserveAspectRatio="xMidYMid meet" version="1.0"><defs><g/><clipPath id="ca249ee1cd"><path d="M 0.851562 9 L 22 9 L 22 34 L 0.851562 34 Z M 0.851562 9 " clip-rule="nonzero"/></clipPath><clipPath id="2f00e6a8dd"><path d="M 44.960938 9.800781 L 65.359375 9.800781 L 65.359375 33.835938 L 44.960938 33.835938 Z M 44.960938 9.800781 " clip-rule="nonzero"/></clipPath><clipPath id="aa97c3f316"><path d="M 25 4 L 43 4 L 43 39.410156 L 25 39.410156 Z M 25 4 " clip-rule="nonzero"/></clipPath></defs><g clip-path="url(#ca249ee1cd)"><path fill="#211d1d" d="M 1.785156 20.28125 L 18.675781 10.035156 C 18.929688 9.894531 19.214844 9.820312 19.527344 9.820312 C 19.992188 9.820312 20.390625 9.988281 20.726562 10.324219 C 21.058594 10.660156 21.222656 11.0625 21.222656 11.535156 C 21.222656 12.152344 20.933594 12.652344 20.351562 13.035156 L 5.839844 21.824219 L 20.351562 30.613281 C 20.933594 31 21.222656 31.5 21.222656 32.113281 C 21.222656 32.585938 21.058594 32.988281 20.726562 33.324219 C 20.390625 33.660156 19.992188 33.828125 19.527344 33.828125 C 19.214844 33.828125 18.929688 33.757812 18.675781 33.613281 L 1.785156 23.367188 C 1.164062 22.96875 0.851562 22.453125 0.851562 21.824219 C 0.851562 21.195312 1.164062 20.683594 1.785156 20.28125 " fill-opacity="1" fill-rule="nonzero"/></g><g clip-path="url(#2f00e6a8dd)"><path fill="#211d1d" d="M 65.359375 21.824219 C 65.359375 22.453125 65.050781 22.96875 64.425781 23.367188 L 47.535156 33.613281 C 47.28125 33.757812 47 33.828125 46.6875 33.828125 C 46.21875 33.828125 45.820312 33.660156 45.488281 33.324219 C 45.15625 32.988281 44.988281 32.585938 44.988281 32.113281 C 44.988281 31.5 45.28125 31 45.859375 30.613281 L 60.375 21.824219 L 45.859375 13.035156 C 45.28125 12.652344 44.988281 12.152344 44.988281 11.535156 C 44.988281 11.0625 45.15625 10.660156 45.488281 10.324219 C 45.820312 9.988281 46.21875 9.820312 46.6875 9.820312 C 47 9.820312 47.28125 9.894531 47.535156 10.035156 L 64.425781 20.28125 C 65.050781 20.683594 65.359375 21.195312 65.359375 21.824219 " fill-opacity="1" fill-rule="nonzero"/></g><g clip-path="url(#aa97c3f316)"><path fill="#8ec03b" d="M 35.828125 19.558594 C 38.347656 18.4375 41.226562 13.078125 41.15625 8.992188 C 42.984375 12.671875 39.792969 19.398438 35.828125 19.558594 Z M 39.8125 5.054688 C 36.773438 3.824219 32.898438 6.386719 31.152344 10.785156 C 29.746094 14.324219 30.15625 17.972656 31.957031 19.902344 L 25.3125 36.632812 C 24.9375 37.578125 25.390625 38.648438 26.328125 39.027344 C 27.261719 39.40625 28.324219 38.949219 28.699219 38.003906 L 35.339844 21.273438 C 37.960938 21.136719 40.75 18.785156 42.15625 15.242188 C 43.902344 10.847656 42.851562 6.285156 39.8125 5.054688 " fill-opacity="1" fill-rule="nonzero"/></g><g fill="#8ec03b" fill-opacity="1"><g transform="translate(69.575356, 26.034461)"><g><path d="M 2.320312 0 L 2.578125 0 C 3.375 0 3.8125 -0.433594 3.8125 -1.230469 C 3.796875 -2.027344 3.796875 -2.824219 3.796875 -3.621094 L 4.332031 -3.621094 C 5.507812 -3.621094 5.898438 -2.550781 6.101562 -1.171875 C 6.214844 -0.390625 6.636719 0 7.40625 0 L 7.867188 0 C 8.722656 0 9.171875 -0.523438 8.984375 -1.390625 C 8.578125 -3.1875 7.984375 -4.085938 7.027344 -4.375 L 7.027344 -4.433594 C 8.257812 -4.738281 9.011719 -5.722656 9.011719 -7.027344 C 9.011719 -9.144531 7.753906 -10.042969 4.8125 -10.042969 L 2.320312 -10.042969 C 1.523438 -10.042969 1.085938 -9.605469 1.085938 -8.808594 C 1.101562 -7.550781 1.117188 -6.289062 1.117188 -5.027344 C 1.117188 -3.753906 1.101562 -2.492188 1.085938 -1.230469 C 1.085938 -0.433594 1.523438 0 2.320312 0 Z M 3.796875 -5.214844 C 3.796875 -6.578125 3.796875 -7.316406 3.8125 -8.042969 L 4.507812 -8.042969 C 5.710938 -8.042969 6.214844 -7.664062 6.214844 -6.765625 C 6.214844 -5.664062 5.652344 -5.214844 4.289062 -5.214844 Z M 3.796875 -5.214844 "/></g></g></g><g fill="#8ec03b" fill-opacity="1"><g transform="translate(79.456266, 26.034461)"><g><path d="M 3.796875 -1.925781 L 3.796875 -4 C 4.40625 -3.984375 5.015625 -3.984375 5.59375 -3.96875 C 6.390625 -3.96875 6.824219 -4.316406 6.824219 -4.957031 C 6.824219 -5.578125 6.390625 -5.925781 5.59375 -5.925781 C 5.015625 -5.914062 4.40625 -5.914062 3.796875 -5.898438 L 3.796875 -8.113281 C 4.59375 -8.101562 5.40625 -8.101562 6.171875 -8.085938 C 6.96875 -8.085938 7.40625 -8.433594 7.40625 -9.070312 C 7.40625 -9.695312 6.96875 -10.042969 6.171875 -10.042969 L 2.320312 -10.042969 C 1.523438 -10.042969 1.085938 -9.605469 1.101562 -8.808594 C 1.101562 -7.550781 1.117188 -6.289062 1.117188 -5.027344 C 1.117188 -3.769531 1.101562 -2.507812 1.101562 -1.230469 C 1.085938 -0.433594 1.523438 0 2.320312 0 L 6.316406 0 C 7.113281 0 7.550781 -0.347656 7.550781 -0.984375 C 7.550781 -1.609375 7.113281 -1.957031 6.316406 -1.957031 C 5.507812 -1.941406 4.652344 -1.941406 3.796875 -1.925781 Z M 3.796875 -1.925781 "/></g></g></g><g fill="#8ec03b" fill-opacity="1"><g transform="translate(87.642067, 26.034461)"><g><path d="M 4.882812 0.144531 C 6.957031 0.144531 8.257812 -0.667969 8.550781 -2.433594 C 8.695312 -3.273438 8.160156 -3.738281 7.359375 -3.738281 L 7.347656 -3.738281 C 6.59375 -3.738281 6.289062 -3.332031 6.042969 -2.566406 C 5.867188 -2.042969 5.519531 -1.855469 4.898438 -1.855469 C 4.070312 -1.855469 3.492188 -2.464844 3.492188 -5.027344 C 3.492188 -7.390625 3.898438 -8.230469 4.898438 -8.230469 C 5.636719 -8.230469 5.984375 -7.941406 6.101562 -7.1875 C 6.214844 -6.363281 6.519531 -5.914062 7.316406 -5.914062 L 7.40625 -5.914062 C 8.1875 -5.914062 8.722656 -6.332031 8.652344 -7.144531 C 8.476562 -9.113281 7.128906 -10.1875 4.984375 -10.1875 C 2.128906 -10.1875 0.710938 -8.460938 0.710938 -5.027344 C 0.710938 -1.578125 2 0.144531 4.882812 0.144531 Z M 4.882812 0.144531 "/></g></g></g><g fill="#8ec03b" fill-opacity="1"><g transform="translate(96.842038, 26.034461)"><g><path d="M 2.320312 0 L 2.578125 0 C 3.375 0 3.8125 -0.433594 3.8125 -1.230469 L 3.8125 -8.808594 C 3.8125 -9.605469 3.375 -10.042969 2.578125 -10.042969 L 2.320312 -10.042969 C 1.523438 -10.042969 1.085938 -9.605469 1.085938 -8.808594 L 1.085938 -1.230469 C 1.085938 -0.433594 1.523438 0 2.320312 0 Z M 2.320312 0 "/></g></g></g><g fill="#8ec03b" fill-opacity="1"><g transform="translate(101.739029, 26.034461)"><g><path d="M 2.320312 0 L 2.578125 0 C 3.375 0 3.8125 -0.433594 3.8125 -1.230469 C 3.796875 -1.824219 3.796875 -2.421875 3.796875 -3.015625 L 4.332031 -3.015625 C 7.214844 -3.015625 9.011719 -4.507812 9.011719 -6.882812 C 9.011719 -9.101562 7.753906 -10.042969 4.8125 -10.042969 L 2.320312 -10.042969 C 1.523438 -10.042969 1.085938 -9.605469 1.085938 -8.808594 C 1.101562 -7.550781 1.117188 -6.289062 1.117188 -5.027344 C 1.117188 -3.753906 1.101562 -2.492188 1.085938 -1.230469 C 1.085938 -0.433594 1.523438 0 2.320312 0 Z M 3.796875 -5.070312 C 3.796875 -6.507812 3.796875 -7.273438 3.8125 -8.042969 L 4.507812 -8.042969 C 5.710938 -8.042969 6.214844 -7.664062 6.214844 -6.765625 C 6.214844 -5.5625 5.652344 -5.070312 4.289062 -5.070312 Z M 3.796875 -5.070312 "/></g></g></g><g fill="#8ec03b" fill-opacity="1"><g transform="translate(111.330182, 26.034461)"><g><path d="M 3.796875 -1.925781 L 3.796875 -4 C 4.40625 -3.984375 5.015625 -3.984375 5.59375 -3.96875 C 6.390625 -3.96875 6.824219 -4.316406 6.824219 -4.957031 C 6.824219 -5.578125 6.390625 -5.925781 5.59375 -5.925781 C 5.015625 -5.914062 4.40625 -5.914062 3.796875 -5.898438 L 3.796875 -8.113281 C 4.59375 -8.101562 5.40625 -8.101562 6.171875 -8.085938 C 6.96875 -8.085938 7.40625 -8.433594 7.40625 -9.070312 C 7.40625 -9.695312 6.96875 -10.042969 6.171875 -10.042969 L 2.320312 -10.042969 C 1.523438 -10.042969 1.085938 -9.605469 1.101562 -8.808594 C 1.101562 -7.550781 1.117188 -6.289062 1.117188 -5.027344 C 1.117188 -3.769531 1.101562 -2.507812 1.101562 -1.230469 C 1.085938 -0.433594 1.523438 0 2.320312 0 L 6.316406 0 C 7.113281 0 7.550781 -0.347656 7.550781 -0.984375 C 7.550781 -1.609375 7.113281 -1.957031 6.316406 -1.957031 C 5.507812 -1.941406 4.652344 -1.941406 3.796875 -1.925781 Z M 3.796875 -1.925781 "/></g></g></g><g fill="#8ec03b" fill-opacity="1"><g transform="translate(119.515983, 26.034461)"><g><path d="M 4.246094 0.144531 C 6.855469 0.144531 8.203125 -0.898438 8.203125 -2.898438 C 8.203125 -6.375 3.363281 -4.867188 3.363281 -7.214844 C 3.363281 -7.910156 3.636719 -8.375 4.476562 -8.375 C 5.171875 -8.375 5.578125 -8.171875 5.710938 -7.5625 C 5.882812 -6.753906 6.113281 -6.316406 6.855469 -6.316406 C 7.59375 -6.316406 8.101562 -6.722656 8.042969 -7.519531 C 7.910156 -9.230469 6.78125 -10.1875 4.519531 -10.1875 C 2.1875 -10.1875 0.855469 -9.332031 0.855469 -7.160156 C 0.855469 -3.609375 5.476562 -4.738281 5.476562 -2.722656 C 5.476562 -2.128906 5.113281 -1.839844 4.332031 -1.839844 C 3.867188 -1.839844 3.535156 -1.925781 3.320312 -2.128906 C 2.824219 -2.667969 2.695312 -3.085938 2 -3.085938 L 1.871094 -3.085938 C 1.128906 -3.085938 0.578125 -2.621094 0.796875 -1.824219 C 1.160156 -0.535156 2.320312 0.144531 4.246094 0.144531 Z M 4.246094 0.144531 "/></g></g></g><g fill="#211d1d" fill-opacity="1"><g transform="translate(128.284929, 26.034461)"><g><path d="M 4.882812 0.144531 C 6.957031 0.144531 8.257812 -0.667969 8.550781 -2.433594 C 8.695312 -3.273438 8.160156 -3.738281 7.359375 -3.738281 L 7.347656 -3.738281 C 6.59375 -3.738281 6.289062 -3.332031 6.042969 -2.566406 C 5.867188 -2.042969 5.519531 -1.855469 4.898438 -1.855469 C 4.070312 -1.855469 3.492188 -2.464844 3.492188 -5.027344 C 3.492188 -7.390625 3.898438 -8.230469 4.898438 -8.230469 C 5.636719 -8.230469 5.984375 -7.941406 6.101562 -7.1875 C 6.214844 -6.363281 6.519531 -5.914062 7.316406 -5.914062 L 7.40625 -5.914062 C 8.1875 -5.914062 8.722656 -6.332031 8.652344 -7.144531 C 8.476562 -9.113281 7.128906 -10.1875 4.984375 -10.1875 C 2.128906 -10.1875 0.710938 -8.460938 0.710938 -5.027344 C 0.710938 -1.578125 2 0.144531 4.882812 0.144531 Z M 4.882812 0.144531 "/></g></g></g><g fill="#211d1d" fill-opacity="1"><g transform="translate(137.4849, 26.034461)"><g><path d="M 4.984375 0.144531 C 7.824219 0.144531 9.230469 -1.578125 9.230469 -5.027344 C 9.230469 -8.460938 7.824219 -10.1875 4.984375 -10.1875 C 2.144531 -10.1875 0.722656 -8.460938 0.722656 -5.027344 C 0.722656 -1.578125 2.144531 0.144531 4.984375 0.144531 Z M 4.984375 -1.8125 C 3.839844 -1.8125 3.492188 -2.566406 3.492188 -5.027344 C 3.492188 -7.476562 3.839844 -8.230469 4.984375 -8.230469 C 6.128906 -8.230469 6.460938 -7.476562 6.460938 -5.027344 C 6.460938 -2.566406 6.128906 -1.8125 4.984375 -1.8125 Z M 4.984375 -1.8125 "/></g></g></g><g fill="#211d1d" fill-opacity="1"><g transform="translate(147.452744, 26.034461)"><g><path d="M 4.390625 0.015625 C 7.679688 0 9.042969 -1.636719 9.042969 -5.160156 C 9.042969 -8.695312 7.679688 -10.042969 4.390625 -10.042969 L 2.347656 -10.042969 C 1.550781 -10.042969 1.117188 -9.59375 1.117188 -8.753906 C 1.117188 -4.363281 1.101562 -2.519531 1.085938 -1.203125 C 1.085938 -0.421875 1.523438 0 2.320312 0 Z M 3.8125 -2 C 3.796875 -2.492188 3.796875 -3.027344 3.796875 -3.550781 C 3.796875 -6.027344 3.796875 -7.042969 3.8125 -8.042969 L 4.332031 -8.042969 C 5.898438 -8.042969 6.363281 -7.246094 6.363281 -5.027344 C 6.363281 -3.085938 5.839844 -2 4.332031 -2 Z M 3.8125 -2 "/></g></g></g><g fill="#211d1d" fill-opacity="1"><g transform="translate(157.217753, 26.034461)"><g><path d="M 3.796875 -1.925781 L 3.796875 -4 C 4.40625 -3.984375 5.015625 -3.984375 5.59375 -3.96875 C 6.390625 -3.96875 6.824219 -4.316406 6.824219 -4.957031 C 6.824219 -5.578125 6.390625 -5.925781 5.59375 -5.925781 C 5.015625 -5.914062 4.40625 -5.914062 3.796875 -5.898438 L 3.796875 -8.113281 C 4.59375 -8.101562 5.40625 -8.101562 6.171875 -8.085938 C 6.96875 -8.085938 7.40625 -8.433594 7.40625 -9.070312 C 7.40625 -9.695312 6.96875 -10.042969 6.171875 -10.042969 L 2.320312 -10.042969 C 1.523438 -10.042969 1.085938 -9.605469 1.101562 -8.808594 C 1.101562 -7.550781 1.117188 -6.289062 1.117188 -5.027344 C 1.117188 -3.769531 1.101562 -2.507812 1.101562 -1.230469 C 1.085938 -0.433594 1.523438 0 2.320312 0 L 6.316406 0 C 7.113281 0 7.550781 -0.347656 7.550781 -0.984375 C 7.550781 -1.609375 7.113281 -1.957031 6.316406 -1.957031 C 5.507812 -1.941406 4.652344 -1.941406 3.796875 -1.925781 Z M 3.796875 -1.925781 "/></g></g></g></svg>